<svg xmlns="http://www.w3.org/2000/svg" xmlns:xlink="http://www.w3.org/1999/xlink" width="1080" zoomAndPan="magnify" viewBox="0 0 810 809.999993" height="1080" preserveAspectRatio="xMidYMid meet" version="1.0"><defs><g/></defs><rect x="-81" width="972" fill="#ffffff" y="-80.999999" height="971.999992" fill-opacity="1"/><rect x="-81" width="972" fill="#ffffff" y="-80.999999" height="971.999992" fill-opacity="1"/><g fill="#000000" fill-opacity="1"><g transform="translate(197.479681, 398.79996)"><g><path d="M 19.234375 -19.59375 L 19.234375 -8.125 C 19.234375 -5.5625 18.476562 -3.539062 16.96875 -2.0625 C 15.457031 -0.59375 13.375 0.140625 10.71875 0.140625 C 8.070312 0.140625 5.988281 -0.59375 4.46875 -2.0625 C 2.945312 -3.539062 2.1875 -5.5625 2.1875 -8.125 L 2.1875 -19.59375 L 5.484375 -19.59375 L 5.484375 -8.125 C 5.484375 -6.476562 5.953125 -5.179688 6.890625 -4.234375 C 7.835938 -3.296875 9.125 -2.828125 10.75 -2.828125 C 12.351562 -2.828125 13.617188 -3.289062 14.546875 -4.21875 C 15.472656 -5.15625 15.9375 -6.457031 15.9375 -8.125 L 15.9375 -19.59375 Z M 19.234375 -19.59375 "/></g></g></g><g fill="#000000" fill-opacity="1"><g transform="translate(218.868768, 398.79996)"><g><path d="M 10.953125 -15.015625 C 13.054688 -15.015625 14.765625 -14.304688 16.078125 -12.890625 C 17.398438 -11.484375 18.0625 -9.648438 18.0625 -7.390625 C 18.0625 -5.148438 17.414062 -3.335938 16.125 -1.953125 C 14.84375 -0.578125 13.132812 0.109375 11 0.109375 C 8.613281 0.109375 6.859375 -0.785156 5.734375 -2.578125 L 5.734375 5.4375 L 2.515625 5.4375 L 2.515625 -14.890625 L 5.734375 -14.890625 L 5.734375 -12.3125 C 6.859375 -14.113281 8.597656 -15.015625 10.953125 -15.015625 Z M 7 -3.984375 C 7.851562 -3.078125 8.941406 -2.625 10.265625 -2.625 C 11.597656 -2.625 12.6875 -3.078125 13.53125 -3.984375 C 14.382812 -4.890625 14.8125 -6.0625 14.8125 -7.5 C 14.8125 -8.90625 14.382812 -10.054688 13.53125 -10.953125 C 12.6875 -11.859375 11.597656 -12.3125 10.265625 -12.3125 C 8.941406 -12.3125 7.851562 -11.859375 7 -10.953125 C 6.15625 -10.054688 5.734375 -8.90625 5.734375 -7.5 C 5.734375 -6.0625 6.15625 -4.890625 7 -3.984375 Z M 7 -3.984375 "/></g></g></g><g fill="#000000" fill-opacity="1"><g transform="translate(237.906173, 398.79996)"><g><path d="M 5.734375 0 L 2.515625 0 L 2.515625 -20.78125 L 5.734375 -20.78125 Z M 5.734375 0 "/></g></g></g><g fill="#000000" fill-opacity="1"><g transform="translate(246.165042, 398.79996)"><g><path d="M 8.765625 -15.015625 C 11.054688 -15.015625 12.921875 -14.316406 14.359375 -12.921875 C 15.796875 -11.535156 16.515625 -9.710938 16.515625 -7.453125 C 16.515625 -5.210938 15.796875 -3.390625 14.359375 -1.984375 C 12.921875 -0.585938 11.054688 0.109375 8.765625 0.109375 C 6.453125 0.109375 4.578125 -0.585938 3.140625 -1.984375 C 1.703125 -3.390625 0.984375 -5.210938 0.984375 -7.453125 C 0.984375 -9.710938 1.703125 -11.535156 3.140625 -12.921875 C 4.578125 -14.316406 6.453125 -15.015625 8.765625 -15.015625 Z M 8.765625 -12.234375 C 7.421875 -12.234375 6.320312 -11.785156 5.46875 -10.890625 C 4.625 -9.992188 4.203125 -8.835938 4.203125 -7.421875 C 4.203125 -5.984375 4.625 -4.816406 5.46875 -3.921875 C 6.320312 -3.023438 7.421875 -2.578125 8.765625 -2.578125 C 10.109375 -2.578125 11.195312 -3.023438 12.03125 -3.921875 C 12.875 -4.816406 13.296875 -5.984375 13.296875 -7.421875 C 13.296875 -8.835938 12.867188 -9.992188 12.015625 -10.890625 C 11.171875 -11.785156 10.085938 -12.234375 8.765625 -12.234375 Z M 8.765625 -12.234375 "/></g></g></g><g fill="#000000" fill-opacity="1"><g transform="translate(263.662657, 398.79996)"><g><path d="M 11.3125 0 L 11.3125 -1.8125 C 10.25 -0.507812 8.609375 0.140625 6.390625 0.140625 C 4.796875 0.140625 3.519531 -0.289062 2.5625 -1.15625 C 1.613281 -2.03125 1.140625 -3.140625 1.140625 -4.484375 C 1.140625 -5.847656 1.632812 -6.929688 2.625 -7.734375 C 3.613281 -8.535156 5 -8.941406 6.78125 -8.953125 L 11.28125 -8.953125 L 11.28125 -9.40625 C 11.28125 -10.363281 10.976562 -11.101562 10.375 -11.625 C 9.769531 -12.144531 8.890625 -12.40625 7.734375 -12.40625 C 6.296875 -12.40625 4.828125 -11.898438 3.328125 -10.890625 L 2.015625 -13.125 C 3.148438 -13.800781 4.171875 -14.285156 5.078125 -14.578125 C 5.984375 -14.867188 7.097656 -15.015625 8.421875 -15.015625 C 10.328125 -15.015625 11.800781 -14.550781 12.84375 -13.625 C 13.894531 -12.695312 14.429688 -11.410156 14.453125 -9.765625 L 14.46875 0 Z M 7.0625 -2.40625 C 8.195312 -2.40625 9.160156 -2.671875 9.953125 -3.203125 C 10.742188 -3.734375 11.1875 -4.410156 11.28125 -5.234375 L 11.28125 -6.609375 L 7.25 -6.609375 C 6.1875 -6.609375 5.40625 -6.453125 4.90625 -6.140625 C 4.414062 -5.835938 4.171875 -5.332031 4.171875 -4.625 C 4.171875 -3.945312 4.425781 -3.40625 4.9375 -3 C 5.457031 -2.601562 6.164062 -2.40625 7.0625 -2.40625 Z M 7.0625 -2.40625 "/></g></g></g><g fill="#000000" fill-opacity="1"><g transform="translate(280.068414, 398.79996)"><g><path d="M 16.578125 -20.78125 L 16.578125 0 L 13.359375 0 L 13.359375 -2.546875 C 12.253906 -0.753906 10.507812 0.140625 8.125 0.140625 C 5.988281 0.140625 4.265625 -0.5625 2.953125 -1.96875 C 1.640625 -3.382812 0.984375 -5.226562 0.984375 -7.5 C 0.984375 -9.738281 1.632812 -11.550781 2.9375 -12.9375 C 4.25 -14.332031 5.957031 -15.03125 8.0625 -15.03125 C 10.445312 -15.03125 12.210938 -14.125 13.359375 -12.3125 L 13.359375 -20.78125 Z M 5.5 -3.90625 C 6.351562 -3 7.453125 -2.546875 8.796875 -2.546875 C 10.140625 -2.546875 11.234375 -3 12.078125 -3.90625 C 12.929688 -4.8125 13.359375 -5.972656 13.359375 -7.390625 C 13.359375 -8.828125 12.929688 -10.003906 12.078125 -10.921875 C 11.234375 -11.835938 10.140625 -12.296875 8.796875 -12.296875 C 7.453125 -12.296875 6.351562 -11.835938 5.5 -10.921875 C 4.65625 -10.003906 4.222656 -8.828125 4.203125 -7.390625 C 4.222656 -5.972656 4.65625 -4.8125 5.5 -3.90625 Z M 5.5 -3.90625 "/></g></g></g><g fill="#000000" fill-opacity="1"><g transform="translate(299.161804, 398.79996)"><g/></g></g><g fill="#000000" fill-opacity="1"><g transform="translate(306.384823, 398.79996)"><g><path d="M 10.609375 -6.53125 L 10.609375 0 L 7.34375 0 L 7.34375 -6.40625 L 0.03125 -19.59375 L 3.359375 -19.59375 L 8.953125 -10.046875 L 14.453125 -19.59375 L 17.8125 -19.59375 Z M 10.609375 -6.53125 "/></g></g></g><g fill="#000000" fill-opacity="1"><g transform="translate(324.21839, 398.79996)"><g><path d="M 8.765625 -15.015625 C 11.054688 -15.015625 12.921875 -14.316406 14.359375 -12.921875 C 15.796875 -11.535156 16.515625 -9.710938 16.515625 -7.453125 C 16.515625 -5.210938 15.796875 -3.390625 14.359375 -1.984375 C 12.921875 -0.585938 11.054688 0.109375 8.765625 0.109375 C 6.453125 0.109375 4.578125 -0.585938 3.140625 -1.984375 C 1.703125 -3.390625 0.984375 -5.210938 0.984375 -7.453125 C 0.984375 -9.710938 1.703125 -11.535156 3.140625 -12.921875 C 4.578125 -14.316406 6.453125 -15.015625 8.765625 -15.015625 Z M 8.765625 -12.234375 C 7.421875 -12.234375 6.320312 -11.785156 5.46875 -10.890625 C 4.625 -9.992188 4.203125 -8.835938 4.203125 -7.421875 C 4.203125 -5.984375 4.625 -4.816406 5.46875 -3.921875 C 6.320312 -3.023438 7.421875 -2.578125 8.765625 -2.578125 C 10.109375 -2.578125 11.195312 -3.023438 12.03125 -3.921875 C 12.875 -4.816406 13.296875 -5.984375 13.296875 -7.421875 C 13.296875 -8.835938 12.867188 -9.992188 12.015625 -10.890625 C 11.171875 -11.785156 10.085938 -12.234375 8.765625 -12.234375 Z M 8.765625 -12.234375 "/></g></g></g><g fill="#000000" fill-opacity="1"><g transform="translate(341.716005, 398.79996)"><g><path d="M 15.90625 -14.890625 L 15.90625 0 L 12.6875 0 L 12.6875 -2.90625 C 11.71875 -0.925781 9.941406 0.078125 7.359375 0.109375 C 5.660156 0.109375 4.328125 -0.398438 3.359375 -1.421875 C 2.390625 -2.453125 1.90625 -3.851562 1.90625 -5.625 L 1.90625 -14.890625 L 5.125 -14.890625 L 5.125 -6.53125 C 5.125 -5.40625 5.429688 -4.519531 6.046875 -3.875 C 6.660156 -3.226562 7.507812 -2.90625 8.59375 -2.90625 C 9.84375 -2.925781 10.835938 -3.367188 11.578125 -4.234375 C 12.316406 -5.109375 12.6875 -6.21875 12.6875 -7.5625 L 12.6875 -14.890625 Z M 15.90625 -14.890625 "/></g></g></g><g fill="#000000" fill-opacity="1"><g transform="translate(359.997506, 398.79996)"><g><path d="M 5.59375 -14.890625 L 5.59375 -11.921875 C 6.625 -13.984375 8.34375 -15.015625 10.75 -15.015625 L 10.75 -11.921875 C 9.28125 -12.003906 8.085938 -11.660156 7.171875 -10.890625 C 6.253906 -10.128906 5.726562 -9.09375 5.59375 -7.78125 L 5.59375 0 L 2.375 0 L 2.375 -14.890625 Z M 5.59375 -14.890625 "/></g></g></g><g fill="#000000" fill-opacity="1"><g transform="translate(371.027996, 398.79996)"><g/></g></g><g fill="#000000" fill-opacity="1"><g transform="translate(378.251014, 398.79996)"><g><path d="M 9.015625 -19.734375 C 11.554688 -19.734375 13.84375 -19.0625 15.875 -17.71875 L 14.5 -14.8125 C 12.507812 -16.019531 10.597656 -16.625 8.765625 -16.625 C 7.773438 -16.625 6.992188 -16.445312 6.421875 -16.09375 C 5.859375 -15.738281 5.578125 -15.234375 5.578125 -14.578125 C 5.578125 -13.929688 5.835938 -13.378906 6.359375 -12.921875 C 6.878906 -12.460938 7.53125 -12.125 8.3125 -11.90625 C 9.09375 -11.695312 9.941406 -11.425781 10.859375 -11.09375 C 11.773438 -10.769531 12.625 -10.425781 13.40625 -10.0625 C 14.195312 -9.695312 14.847656 -9.128906 15.359375 -8.359375 C 15.867188 -7.585938 16.125 -6.648438 16.125 -5.546875 C 16.125 -3.828125 15.4375 -2.453125 14.0625 -1.421875 C 12.695312 -0.398438 10.921875 0.109375 8.734375 0.109375 C 7.242188 0.109375 5.796875 -0.164062 4.390625 -0.71875 C 2.992188 -1.28125 1.773438 -2.039062 0.734375 -3 L 2.15625 -5.859375 C 3.144531 -4.941406 4.234375 -4.234375 5.421875 -3.734375 C 6.609375 -3.242188 7.734375 -3 8.796875 -3 C 9.953125 -3 10.847656 -3.207031 11.484375 -3.625 C 12.128906 -4.039062 12.453125 -4.625 12.453125 -5.375 C 12.453125 -6.050781 12.191406 -6.613281 11.671875 -7.0625 C 11.148438 -7.519531 10.5 -7.859375 9.71875 -8.078125 C 8.9375 -8.296875 8.085938 -8.554688 7.171875 -8.859375 C 6.253906 -9.171875 5.398438 -9.5 4.609375 -9.84375 C 3.828125 -10.1875 3.175781 -10.738281 2.65625 -11.5 C 2.132812 -12.269531 1.875 -13.195312 1.875 -14.28125 C 1.875 -15.9375 2.523438 -17.257812 3.828125 -18.25 C 5.140625 -19.238281 6.867188 -19.734375 9.015625 -19.734375 Z M 9.015625 -19.734375 "/></g></g></g><g fill="#000000" fill-opacity="1"><g transform="translate(395.664652, 398.79996)"><g><path d="M 2.625 -20.5625 C 2.976562 -20.925781 3.425781 -21.109375 3.96875 -21.109375 C 4.507812 -21.109375 4.957031 -20.925781 5.3125 -20.5625 C 5.675781 -20.195312 5.859375 -19.726562 5.859375 -19.15625 C 5.859375 -18.59375 5.675781 -18.128906 5.3125 -17.765625 C 4.957031 -17.398438 4.507812 -17.21875 3.96875 -17.21875 C 3.425781 -17.21875 2.976562 -17.398438 2.625 -17.765625 C 2.269531 -18.128906 2.09375 -18.59375 2.09375 -19.15625 C 2.09375 -19.726562 2.269531 -20.195312 2.625 -20.5625 Z M 5.578125 0 L 2.375 0 L 2.375 -14.890625 L 5.578125 -14.890625 Z M 5.578125 0 "/></g></g></g><g fill="#000000" fill-opacity="1"><g transform="translate(403.615572, 398.79996)"><g><path d="M 15.8125 -14.890625 L 15.8125 -1.453125 C 15.8125 0.671875 15.113281 2.363281 13.71875 3.625 C 12.320312 4.882812 10.445312 5.515625 8.09375 5.515625 C 5.882812 5.515625 3.820312 4.863281 1.90625 3.5625 L 3.28125 1.234375 C 4.726562 2.316406 6.285156 2.859375 7.953125 2.859375 C 9.367188 2.859375 10.5 2.472656 11.34375 1.703125 C 12.195312 0.941406 12.625 -0.0820312 12.625 -1.375 L 12.625 -3.25 C 11.582031 -1.570312 9.941406 -0.734375 7.703125 -0.734375 C 5.679688 -0.734375 4.054688 -1.394531 2.828125 -2.71875 C 1.597656 -4.039062 0.984375 -5.773438 0.984375 -7.921875 C 0.984375 -10.035156 1.585938 -11.738281 2.796875 -13.03125 C 4.015625 -14.332031 5.613281 -14.992188 7.59375 -15.015625 C 9.863281 -15.023438 11.539062 -14.179688 12.625 -12.484375 L 12.625 -14.890625 Z M 8.34375 -3.25 C 9.59375 -3.25 10.617188 -3.675781 11.421875 -4.53125 C 12.222656 -5.394531 12.625 -6.5 12.625 -7.84375 C 12.625 -9.1875 12.226562 -10.28125 11.4375 -11.125 C 10.644531 -11.976562 9.613281 -12.40625 8.34375 -12.40625 C 7.070312 -12.40625 6.035156 -11.976562 5.234375 -11.125 C 4.429688 -10.28125 4.019531 -9.1875 4 -7.84375 C 4.019531 -6.5 4.425781 -5.394531 5.21875 -4.53125 C 6.007812 -3.675781 7.050781 -3.25 8.34375 -3.25 Z M 8.34375 -3.25 "/></g></g></g><g fill="#000000" fill-opacity="1"><g transform="translate(421.533128, 398.79996)"><g><path d="M 11.09375 -15.015625 C 12.820312 -15.015625 14.175781 -14.503906 15.15625 -13.484375 C 16.132812 -12.460938 16.625 -11.054688 16.625 -9.265625 L 16.625 0 L 13.40625 0 L 13.40625 -8.375 C 13.40625 -9.488281 13.085938 -10.367188 12.453125 -11.015625 C 11.828125 -11.660156 10.953125 -11.984375 9.828125 -11.984375 C 8.628906 -11.960938 7.648438 -11.578125 6.890625 -10.828125 C 6.140625 -10.085938 5.707031 -9.117188 5.59375 -7.921875 L 5.59375 0 L 2.375 0 L 2.375 -14.890625 L 5.59375 -14.890625 L 5.59375 -12.046875 C 6.601562 -14.023438 8.4375 -15.015625 11.09375 -15.015625 Z M 11.09375 -15.015625 "/></g></g></g><g fill="#000000" fill-opacity="1"><g transform="translate(440.094597, 398.79996)"><g><path d="M 11.3125 0 L 11.3125 -1.8125 C 10.25 -0.507812 8.609375 0.140625 6.390625 0.140625 C 4.796875 0.140625 3.519531 -0.289062 2.5625 -1.15625 C 1.613281 -2.03125 1.140625 -3.140625 1.140625 -4.484375 C 1.140625 -5.847656 1.632812 -6.929688 2.625 -7.734375 C 3.613281 -8.535156 5 -8.941406 6.78125 -8.953125 L 11.28125 -8.953125 L 11.28125 -9.40625 C 11.28125 -10.363281 10.976562 -11.101562 10.375 -11.625 C 9.769531 -12.144531 8.890625 -12.40625 7.734375 -12.40625 C 6.296875 -12.40625 4.828125 -11.898438 3.328125 -10.890625 L 2.015625 -13.125 C 3.148438 -13.800781 4.171875 -14.285156 5.078125 -14.578125 C 5.984375 -14.867188 7.097656 -15.015625 8.421875 -15.015625 C 10.328125 -15.015625 11.800781 -14.550781 12.84375 -13.625 C 13.894531 -12.695312 14.429688 -11.410156 14.453125 -9.765625 L 14.46875 0 Z M 7.0625 -2.40625 C 8.195312 -2.40625 9.160156 -2.671875 9.953125 -3.203125 C 10.742188 -3.734375 11.1875 -4.410156 11.28125 -5.234375 L 11.28125 -6.609375 L 7.25 -6.609375 C 6.1875 -6.609375 5.40625 -6.453125 4.90625 -6.140625 C 4.414062 -5.835938 4.171875 -5.332031 4.171875 -4.625 C 4.171875 -3.945312 4.425781 -3.40625 4.9375 -3 C 5.457031 -2.601562 6.164062 -2.40625 7.0625 -2.40625 Z M 7.0625 -2.40625 "/></g></g></g><g fill="#000000" fill-opacity="1"><g transform="translate(456.500343, 398.79996)"><g><path d="M 10 -3.421875 L 10.8125 -0.953125 C 9.570312 -0.222656 8.34375 0.140625 7.125 0.140625 C 5.914062 0.140625 4.921875 -0.222656 4.140625 -0.953125 C 3.359375 -1.679688 2.96875 -2.765625 2.96875 -4.203125 L 2.96875 -11.921875 L 0.875 -11.921875 L 0.875 -14.34375 L 2.96875 -14.34375 L 2.96875 -18.421875 L 6.15625 -18.421875 L 6.15625 -14.34375 L 10.5625 -14.34375 L 10.5625 -11.921875 L 6.15625 -11.921875 L 6.15625 -4.78125 C 6.15625 -4.039062 6.285156 -3.519531 6.546875 -3.21875 C 6.804688 -2.914062 7.207031 -2.765625 7.75 -2.765625 C 8.351562 -2.765625 9.101562 -2.984375 10 -3.421875 Z M 10 -3.421875 "/></g></g></g><g fill="#000000" fill-opacity="1"><g transform="translate(467.89479, 398.79996)"><g><path d="M 15.90625 -14.890625 L 15.90625 0 L 12.6875 0 L 12.6875 -2.90625 C 11.71875 -0.925781 9.941406 0.078125 7.359375 0.109375 C 5.660156 0.109375 4.328125 -0.398438 3.359375 -1.421875 C 2.390625 -2.453125 1.90625 -3.851562 1.90625 -5.625 L 1.90625 -14.890625 L 5.125 -14.890625 L 5.125 -6.53125 C 5.125 -5.40625 5.429688 -4.519531 6.046875 -3.875 C 6.660156 -3.226562 7.507812 -2.90625 8.59375 -2.90625 C 9.84375 -2.925781 10.835938 -3.367188 11.578125 -4.234375 C 12.316406 -5.109375 12.6875 -6.21875 12.6875 -7.5625 L 12.6875 -14.890625 Z M 15.90625 -14.890625 "/></g></g></g><g fill="#000000" fill-opacity="1"><g transform="translate(486.176291, 398.79996)"><g><path d="M 5.59375 -14.890625 L 5.59375 -11.921875 C 6.625 -13.984375 8.34375 -15.015625 10.75 -15.015625 L 10.75 -11.921875 C 9.28125 -12.003906 8.085938 -11.660156 7.171875 -10.890625 C 6.253906 -10.128906 5.726562 -9.09375 5.59375 -7.78125 L 5.59375 0 L 2.375 0 L 2.375 -14.890625 Z M 5.59375 -14.890625 "/></g></g></g><g fill="#000000" fill-opacity="1"><g transform="translate(497.206793, 398.79996)"><g><path d="M 8.515625 -15.015625 C 11.066406 -15.015625 12.914062 -14.242188 14.0625 -12.703125 C 15.21875 -11.160156 15.691406 -9 15.484375 -6.21875 L 4.234375 -6.21875 C 4.492188 -5.0625 5.03125 -4.148438 5.84375 -3.484375 C 6.664062 -2.816406 7.664062 -2.484375 8.84375 -2.484375 C 10.53125 -2.484375 11.929688 -3.066406 13.046875 -4.234375 L 14.75 -2.40625 C 13.21875 -0.726562 11.164062 0.109375 8.59375 0.109375 C 6.300781 0.109375 4.457031 -0.582031 3.0625 -1.96875 C 1.675781 -3.363281 0.984375 -5.179688 0.984375 -7.421875 C 0.984375 -9.660156 1.679688 -11.476562 3.078125 -12.875 C 4.484375 -14.28125 6.296875 -14.992188 8.515625 -15.015625 Z M 4.171875 -8.5625 L 12.6875 -8.5625 C 12.625 -9.757812 12.21875 -10.703125 11.46875 -11.390625 C 10.726562 -12.085938 9.753906 -12.4375 8.546875 -12.4375 C 7.367188 -12.4375 6.390625 -12.085938 5.609375 -11.390625 C 4.835938 -10.703125 4.359375 -9.757812 4.171875 -8.5625 Z M 4.171875 -8.5625 "/></g></g></g><g fill="#000000" fill-opacity="1"><g transform="translate(513.668546, 398.79996)"><g/></g></g><g fill="#000000" fill-opacity="1"><g transform="translate(520.891575, 398.79996)"><g><path d="M 19.578125 0 L 16.265625 0 L 16.265625 -8.125 L 5.875 -8.125 L 5.875 0 L 2.578125 0 L 2.578125 -19.59375 L 5.875 -19.59375 L 5.875 -11.09375 L 16.265625 -11.09375 L 16.265625 -19.59375 L 19.578125 -19.59375 Z M 19.578125 0 "/></g></g></g><g fill="#000000" fill-opacity="1"><g transform="translate(543.036556, 398.79996)"><g><path d="M 8.515625 -15.015625 C 11.066406 -15.015625 12.914062 -14.242188 14.0625 -12.703125 C 15.21875 -11.160156 15.691406 -9 15.484375 -6.21875 L 4.234375 -6.21875 C 4.492188 -5.0625 5.03125 -4.148438 5.84375 -3.484375 C 6.664062 -2.816406 7.664062 -2.484375 8.84375 -2.484375 C 10.53125 -2.484375 11.929688 -3.066406 13.046875 -4.234375 L 14.75 -2.40625 C 13.21875 -0.726562 11.164062 0.109375 8.59375 0.109375 C 6.300781 0.109375 4.457031 -0.582031 3.0625 -1.96875 C 1.675781 -3.363281 0.984375 -5.179688 0.984375 -7.421875 C 0.984375 -9.660156 1.679688 -11.476562 3.078125 -12.875 C 4.484375 -14.28125 6.296875 -14.992188 8.515625 -15.015625 Z M 4.171875 -8.5625 L 12.6875 -8.5625 C 12.625 -9.757812 12.21875 -10.703125 11.46875 -11.390625 C 10.726562 -12.085938 9.753906 -12.4375 8.546875 -12.4375 C 7.367188 -12.4375 6.390625 -12.085938 5.609375 -11.390625 C 4.835938 -10.703125 4.359375 -9.757812 4.171875 -8.5625 Z M 4.171875 -8.5625 "/></g></g></g><g fill="#000000" fill-opacity="1"><g transform="translate(559.498309, 398.79996)"><g><path d="M 5.59375 -14.890625 L 5.59375 -11.921875 C 6.625 -13.984375 8.34375 -15.015625 10.75 -15.015625 L 10.75 -11.921875 C 9.28125 -12.003906 8.085938 -11.660156 7.171875 -10.890625 C 6.253906 -10.128906 5.726562 -9.09375 5.59375 -7.78125 L 5.59375 0 L 2.375 0 L 2.375 -14.890625 Z M 5.59375 -14.890625 "/></g></g></g><g fill="#000000" fill-opacity="1"><g transform="translate(570.52881, 398.79996)"><g><path d="M 8.515625 -15.015625 C 11.066406 -15.015625 12.914062 -14.242188 14.0625 -12.703125 C 15.21875 -11.160156 15.691406 -9 15.484375 -6.21875 L 4.234375 -6.21875 C 4.492188 -5.0625 5.03125 -4.148438 5.84375 -3.484375 C 6.664062 -2.816406 7.664062 -2.484375 8.84375 -2.484375 C 10.53125 -2.484375 11.929688 -3.066406 13.046875 -4.234375 L 14.75 -2.40625 C 13.21875 -0.726562 11.164062 0.109375 8.59375 0.109375 C 6.300781 0.109375 4.457031 -0.582031 3.0625 -1.96875 C 1.675781 -3.363281 0.984375 -5.179688 0.984375 -7.421875 C 0.984375 -9.660156 1.679688 -11.476562 3.078125 -12.875 C 4.484375 -14.28125 6.296875 -14.992188 8.515625 -15.015625 Z M 4.171875 -8.5625 L 12.6875 -8.5625 C 12.625 -9.757812 12.21875 -10.703125 11.46875 -11.390625 C 10.726562 -12.085938 9.753906 -12.4375 8.546875 -12.4375 C 7.367188 -12.4375 6.390625 -12.085938 5.609375 -11.390625 C 4.835938 -10.703125 4.359375 -9.757812 4.171875 -8.5625 Z M 4.171875 -8.5625 "/></g></g></g><g fill="#000000" fill-opacity="1"><g transform="translate(586.990587, 398.79996)"><g/></g></g><g fill="#000000" fill-opacity="1"><g transform="translate(594.213593, 398.79996)"><g><path d="M 1.78125 -2.921875 C 2.125 -3.265625 2.546875 -3.4375 3.046875 -3.4375 C 3.554688 -3.4375 3.976562 -3.265625 4.3125 -2.921875 C 4.644531 -2.578125 4.8125 -2.144531 4.8125 -1.625 C 4.8125 -1.082031 4.644531 -0.632812 4.3125 -0.28125 C 3.976562 0.0703125 3.554688 0.25 3.046875 0.25 C 2.546875 0.25 2.125 0.0703125 1.78125 -0.28125 C 1.445312 -0.632812 1.28125 -1.082031 1.28125 -1.625 C 1.28125 -2.144531 1.445312 -2.578125 1.78125 -2.921875 Z M 1.78125 -2.921875 "/></g></g></g><g fill="#000000" fill-opacity="1"><g transform="translate(600.316773, 398.79996)"><g><path d="M 1.78125 -2.921875 C 2.125 -3.265625 2.546875 -3.4375 3.046875 -3.4375 C 3.554688 -3.4375 3.976562 -3.265625 4.3125 -2.921875 C 4.644531 -2.578125 4.8125 -2.144531 4.8125 -1.625 C 4.8125 -1.082031 4.644531 -0.632812 4.3125 -0.28125 C 3.976562 0.0703125 3.554688 0.25 3.046875 0.25 C 2.546875 0.25 2.125 0.0703125 1.78125 -0.28125 C 1.445312 -0.632812 1.28125 -1.082031 1.28125 -1.625 C 1.28125 -2.144531 1.445312 -2.578125 1.78125 -2.921875 Z M 1.78125 -2.921875 "/></g></g></g><g fill="#000000" fill-opacity="1"><g transform="translate(606.419953, 398.79996)"><g><path d="M 1.78125 -2.921875 C 2.125 -3.265625 2.546875 -3.4375 3.046875 -3.4375 C 3.554688 -3.4375 3.976562 -3.265625 4.3125 -2.921875 C 4.644531 -2.578125 4.8125 -2.144531 4.8125 -1.625 C 4.8125 -1.082031 4.644531 -0.632812 4.3125 -0.28125 C 3.976562 0.0703125 3.554688 0.25 3.046875 0.25 C 2.546875 0.25 2.125 0.0703125 1.78125 -0.28125 C 1.445312 -0.632812 1.28125 -1.082031 1.28125 -1.625 C 1.28125 -2.144531 1.445312 -2.578125 1.78125 -2.921875 Z M 1.78125 -2.921875 "/></g></g></g></svg>